<?xml version="1.0" standalone="no"?>
<!DOCTYPE svg PUBLIC "-//W3C//DTD SVG 20010904//EN"
 "http://www.w3.org/TR/2001/REC-SVG-20010904/DTD/svg10.dtd">
<svg version="1.0" xmlns="http://www.w3.org/2000/svg"
 width="500.000000pt" height="500.000000pt" viewBox="0 0 500.000000 500.000000"
 preserveAspectRatio="xMidYMid meet">

<g transform="translate(0.000000,500.000000) scale(0.100000,-0.100000)"
fill="#000000" stroke="none">
<path d="M2230 4525 c-240 -33 -384 -76 -605 -185 -230 -112 -393 -229 -551
-392 -320 -331 -494 -656 -590 -1103 -27 -123 -28 -143 -28 -375 0 -226 2
-255 27 -376 15 -71 40 -170 57 -219 16 -49 30 -90 30 -91 0 -1 -20 -7 -45
-14 -29 -8 -56 -25 -75 -47 -40 -45 -40 -33 9 -398 45 -333 41 -317 78 -354
33 -33 34 -34 111 -29 143 9 179 48 168 186 -4 46 -10 90 -13 98 -3 8 -1 14 4
14 6 0 13 -31 16 -70 8 -97 36 -156 83 -176 54 -23 177 -4 214 31 15 14 29 22
33 19 3 -4 -9 -19 -28 -34 l-34 -27 62 -55 c34 -30 92 -77 128 -105 37 -28 92
-75 122 -105 169 -166 449 -307 747 -376 106 -24 132 -26 350 -27 187 0 254 4
325 18 285 56 564 191 770 371 44 39 50 48 50 84 0 29 2 37 8 26 5 -9 7 -29 5
-44 l-4 -29 29 16 c17 8 41 26 54 39 19 19 28 22 49 14 42 -16 126 -11 174 11
58 26 103 70 147 144 20 33 38 62 39 64 2 2 27 -21 56 -51 46 -47 62 -57 120
-71 164 -41 285 1 339 118 26 55 25 144 -1 196 -18 34 -19 40 -6 45 51 20 72
132 36 191 -34 56 -172 100 -269 85 -18 -2 -32 -1 -30 4 2 5 25 59 51 119 60
142 112 314 140 468 30 161 32 516 5 667 -57 308 -157 558 -323 806 -343 514
-883 849 -1484 924 -113 14 -432 11 -550 -5z m625 -190 c136 -23 395 -99 395
-115 0 -5 -10 -12 -22 -16 -52 -16 -259 -166 -357 -259 -35 -33 -61 -51 -56
-40 49 121 56 254 14 288 -36 29 -97 18 -167 -29 -78 -53 -218 -195 -271 -277
-47 -70 -57 -80 -46 -47 11 35 8 149 -5 181 -13 31 -55 59 -88 59 -35 0 -108
-57 -146 -114 -51 -77 -125 -236 -171 -369 l-38 -108 -72 -33 c-104 -48 -238
-140 -295 -203 -46 -50 -130 -201 -130 -233 0 -7 -37 -49 -82 -94 -88 -86
-134 -154 -171 -252 -19 -51 -22 -77 -20 -194 l1 -136 -127 -39 c-69 -22 -175
-61 -236 -87 -60 -26 -113 -44 -116 -40 -11 11 -29 213 -29 316 1 172 52 457
111 620 98 269 268 526 485 736 167 161 315 263 509 348 356 157 736 203 1130
137z m-95 -300 c-7 -22 -21 -64 -32 -93 -18 -47 -22 -51 -36 -40 -15 11 -15
11 -4 -4 14 -17 7 -64 -11 -75 -6 -4 -8 0 -4 10 3 9 1 19 -5 23 -8 5 -9 -2 -5
-22 3 -17 2 -36 -4 -44 -7 -12 -9 -11 -10 5 -1 11 -1 23 0 28 0 4 -4 7 -9 7
-6 0 -8 -11 -6 -25 3 -15 1 -23 -5 -20 -5 4 -7 10 -4 15 3 5 1 12 -5 15 -6 4
-10 3 -9 -2 3 -17 -1 -56 -5 -52 -10 10 -14 59 -5 64 5 4 9 12 9 18 0 7 -5 5
-10 -4 -6 -11 -20 -16 -40 -14 -16 1 -27 -1 -25 -6 3 -4 0 -11 -6 -15 -8 -4
-9 -3 -5 4 4 7 3 12 -3 12 -5 0 -8 16 -6 36 3 31 1 33 -10 18 -8 -11 -10 -27
-5 -44 5 -18 4 -27 -4 -27 -8 0 -11 10 -8 25 4 18 1 23 -7 17 -24 -14 59 91
111 142 29 28 80 70 113 92 57 38 60 39 63 18 2 -11 -2 -39 -8 -62z m915 -56
c92 -70 145 -115 145 -122 0 -2 -24 -5 -52 -5 -70 -1 -168 -32 -307 -98 -63
-30 -116 -54 -118 -54 -3 0 26 33 64 74 80 86 125 169 131 243 4 50 5 52 26
41 11 -6 62 -42 111 -79z m-1422 -89 c-6 -56 -29 -184 -49 -271 l-16 -67 -88
-16 c-48 -9 -93 -16 -98 -16 -28 0 150 370 206 428 l35 37 7 -25 c4 -14 5 -45
3 -70z m333 -93 c3 -21 -22 -29 -36 -11 -9 10 -9 14 -1 14 6 0 11 -5 11 -12 0
-6 3 -8 6 -5 4 4 1 13 -5 21 -10 12 -9 14 5 12 10 -2 18 -10 20 -19z m44 -67
c-6 -11 -13 -20 -16 -20 -2 0 0 9 6 20 6 11 13 20 16 20 2 0 0 -9 -6 -20z
m1483 -215 c203 -302 302 -613 314 -986 6 -167 -10 -369 -28 -369 -5 0 -44 17
-87 39 -142 71 -383 148 -553 176 -35 5 -37 7 -36 43 1 20 -2 53 -7 72 -7 34
-6 36 33 54 111 48 189 148 198 255 7 71 -6 97 -58 120 l-39 18 26 24 c44 41
84 107 110 179 26 77 29 105 14 146 -21 54 -79 71 -188 56 l-63 -9 68 67 c37
37 79 89 93 116 28 56 38 155 21 206 -10 31 -6 29 45 -27 31 -33 92 -114 137
-180z m-1550 108 c43 -30 44 -30 66 -12 73 60 216 43 287 -33 41 -43 54 -69
54 -107 0 -17 1 -31 3 -31 1 0 20 7 42 15 190 68 391 -101 351 -295 -12 -58
-12 -60 8 -60 71 0 165 -62 192 -127 48 -113 37 -210 -28 -274 l-41 -40 41
-40 c23 -22 45 -52 49 -67 3 -15 14 -45 24 -67 43 -94 11 -183 -85 -240 -16
-9 -16 -13 -3 -45 8 -19 25 -78 37 -130 13 -52 38 -128 56 -168 l33 -73 -52
-24 c-29 -12 -66 -25 -83 -28 -27 -5 -33 -2 -47 28 -20 42 -54 54 -184 63
l-98 7 56 32 c61 34 109 97 128 168 15 56 14 159 -3 199 -13 32 -13 34 19 59
17 14 39 41 48 60 21 43 22 142 3 177 -12 21 -12 29 0 52 80 154 -17 392 -207
506 -44 27 -49 27 -49 5 0 -10 19 -29 42 -43 95 -58 167 -188 175 -315 4 -72
2 -85 -20 -126 l-25 -47 24 -48 c15 -29 24 -65 24 -92 0 -37 -5 -49 -33 -75
-18 -18 -41 -37 -52 -43 -18 -10 -18 -12 -1 -68 31 -99 10 -198 -58 -274 -52
-57 -94 -74 -169 -70 -61 3 -62 3 -65 -24 -3 -24 -8 -28 -36 -28 -47 0 -98
-38 -116 -86 -17 -47 -37 -74 -55 -74 -7 0 -32 -16 -56 -35 l-44 -34 -18 29
c-33 52 -153 64 -210 21 -36 -28 -54 -31 -72 -11 -25 28 -97 44 -158 35 -28
-4 -92 -9 -142 -11 -49 -1 -97 -3 -105 -4 -8 -1 -40 2 -70 6 -41 5 -65 2 -95
-10 -31 -13 -56 -16 -111 -11 -72 7 -72 7 -65 34 7 26 9 26 82 23 102 -5 205
19 313 72 110 55 162 93 348 261 80 72 177 159 217 194 84 74 110 118 93 155
-19 42 -59 61 -123 59 -80 -2 -93 -12 -44 -35 l40 -19 -33 4 c-21 2 -31 0 -29
-7 6 -15 -59 -12 -77 3 -10 8 -16 7 -26 -4 -9 -10 -9 -15 -1 -15 6 0 11 5 11
12 0 15 13 2 16 -16 2 -12 -13 -14 -36 -6 -3 1 -14 3 -25 4 -12 0 -20 8 -20
20 0 12 -8 20 -20 21 -44 5 -182 60 -217 87 -50 39 -93 131 -118 251 -23 115
-71 214 -131 273 l-40 39 -102 -1 c-84 0 -114 -5 -170 -26 -67 -26 -68 -26
-61 -4 31 100 138 198 310 284 105 53 243 89 419 109 126 15 152 15 253 2 101
-13 112 -13 112 1 -1 45 -54 66 -204 81 -64 7 -116 15 -116 19 0 11 60 64 88
77 15 7 53 11 85 10 45 -3 67 -10 100 -34z m-603 -1370 c0 -10 -12 -36 -25
-58 -43 -70 -33 -72 61 -10 59 38 70 42 84 31 8 -8 29 -16 45 -18 27 -3 21 -8
-65 -55 -135 -73 -300 -131 -300 -104 0 26 169 231 191 231 5 0 9 -8 9 -17z
m1274 -453 c76 -6 147 -15 157 -21 15 -7 19 -21 19 -57 0 -74 -15 -87 -94 -84
-36 2 -66 2 -67 0 0 -2 -9 -113 -19 -248 -16 -212 -21 -246 -37 -258 -24 -18
-131 -12 -144 9 -5 8 -7 43 -3 79 23 262 31 426 20 432 -6 4 -34 8 -61 8 -28
0 -56 5 -63 12 -7 7 -12 36 -12 64 0 71 21 86 105 79 33 -3 122 -10 199 -15z
m-2245 -49 c13 -13 22 -45 30 -102 74 -556 74 -551 54 -570 -26 -27 -134 -37
-152 -15 -7 8 -20 68 -28 133 -8 65 -18 121 -22 125 -8 9 -132 -10 -144 -21
-5 -5 -1 -60 7 -123 9 -64 13 -123 10 -132 -9 -23 -32 -34 -90 -41 -83 -11
-84 -10 -133 347 -24 168 -40 316 -36 327 8 27 28 37 87 44 74 10 86 -6 105
-138 8 -61 16 -112 18 -114 5 -5 145 16 152 23 3 3 0 44 -7 92 -20 143 -16
158 51 174 56 13 78 11 98 -9z m98 -43 c-3 -8 -6 -5 -6 6 -1 11 2 17 5 13 3
-3 4 -12 1 -19z m-333 -25 c10 -37 18 -138 10 -130 -12 11 -32 147 -23 147 4
0 10 -8 13 -17z m355 -53 c-1 -32 -2 -33 -9 -10 -4 14 -8 36 -9 50 -1 20 1 22
9 10 5 -8 9 -31 9 -50z m1224 26 c167 -71 183 -417 23 -499 -40 -21 -112 -27
-158 -14 l-28 7 0 -80 c0 -110 -6 -120 -79 -120 -91 0 -87 -15 -94 348 l-6
313 24 25 c28 28 79 32 112 9 19 -13 26 -13 65 5 51 23 96 25 141 6z m291 1
c12 -9 25 -51 41 -137 14 -69 29 -143 33 -165 8 -38 10 -31 47 119 21 87 45
165 53 172 26 26 123 12 135 -19 11 -29 -96 -406 -149 -525 -47 -106 -105
-152 -191 -152 -64 0 -83 16 -83 74 0 49 13 66 51 66 27 0 79 34 79 51 0 5 -7
9 -15 9 -8 0 -21 10 -29 23 -14 22 -106 407 -106 445 0 43 91 70 134 39z
m-681 -18 c13 -21 -1 -125 -19 -144 -9 -8 -30 -15 -47 -15 -18 0 -43 -7 -56
-16 -22 -16 -23 -19 -20 -165 3 -106 0 -152 -9 -161 -6 -6 -38 -14 -71 -16
-84 -6 -87 1 -95 213 -4 94 -9 191 -12 217 -5 38 -2 50 15 67 29 29 85 28 116
-3 l24 -24 21 23 c38 41 133 56 153 24z m-488 -54 c74 -42 96 -112 110 -335 8
-125 1 -140 -66 -147 -34 -4 -50 -1 -62 11 -15 16 -19 15 -47 -6 -22 -16 -48
-23 -93 -26 -52 -3 -67 0 -96 20 -48 32 -73 79 -74 137 -2 97 67 156 196 168
70 6 78 14 53 48 -9 13 -25 19 -50 18 -32 -1 -48 -8 -102 -48 -20 -14 -66 14
-78 47 -39 110 178 190 309 113z m2202 -3 c83 -43 118 -119 111 -244 -3 -68
-10 -93 -34 -138 -63 -118 -200 -152 -329 -82 -38 21 -55 39 -77 81 -24 46
-28 64 -28 140 0 70 5 96 24 136 28 60 70 102 122 121 54 20 158 13 211 -14z
m297 -41 c13 -14 20 -55 29 -172 14 -173 11 -172 72 -24 65 156 82 185 111
185 36 0 92 -28 99 -50 6 -20 -202 -448 -256 -527 -36 -52 -93 -83 -151 -83
-59 0 -88 22 -88 66 0 53 15 74 54 74 19 0 45 9 60 21 27 21 27 21 8 43 -28
30 -83 463 -61 477 26 16 105 11 123 -10z m101 0 c3 -5 1 -12 -5 -16 -5 -3
-10 1 -10 9 0 18 6 21 15 7z m457 -62 c29 -6 66 -18 81 -26 54 -27 61 -97 13
-128 -21 -14 -27 -13 -79 11 -61 27 -97 25 -97 -6 0 -11 24 -32 71 -60 80 -47
109 -86 109 -145 0 -90 -79 -165 -174 -165 -64 0 -151 28 -182 58 -28 29 -32
85 -8 120 19 27 44 28 77 2 44 -35 95 -52 117 -40 32 17 23 39 -27 68 -74 43
-112 81 -124 123 -22 73 22 158 96 184 49 17 61 18 127 4z m-1567 -209 c-7
-14 -17 -46 -23 -71 -16 -66 -67 -174 -106 -228 -47 -63 -132 -108 -206 -109
l-55 0 52 8 c151 23 233 119 308 362 19 61 32 90 36 80 4 -9 1 -28 -6 -42z
m-456 -132 c-15 -14 -31 -39 -35 -55 -3 -15 -24 -57 -45 -93 -70 -119 -90
-181 -105 -332 -7 -69 -2 -68 -160 -37 -186 35 -493 149 -545 202 -11 10 -21
49 -29 104 -8 57 -18 92 -28 101 -14 11 -14 12 1 12 10 0 29 7 43 16 17 12 28
14 35 7 7 -7 0 -12 -20 -16 -17 -4 -31 -11 -31 -17 0 -16 46 -12 60 5 9 10 32
15 76 15 83 0 136 22 160 65 17 32 18 33 39 17 19 -14 23 -30 28 -94 4 -43 11
-87 17 -99 22 -39 70 -59 147 -59 62 0 75 3 102 26 33 27 56 92 47 129 -5 21
-1 23 47 29 73 10 132 41 175 92 31 37 38 42 43 27 5 -12 -2 -26 -22 -45z
m1285 -33 c-24 -32 -53 -55 -68 -55 -8 0 78 88 87 89 4 1 -4 -15 -19 -34z
m-492 -16 c-22 -27 -58 -45 -104 -53 -53 -10 -47 1 8 15 25 7 57 24 72 39 31
31 50 30 24 -1z m-1842 -57 c0 -20 -173 -52 -184 -33 -5 7 10 11 46 11 29 1
64 7 78 15 27 16 60 20 60 7z m63 -9 c-7 -2 -19 -2 -25 0 -7 3 -2 5 12 5 14 0
19 -2 13 -5z m1037 -146 c13 -5 13 -6 -1 -6 -8 -1 -24 6 -35 15 -19 15 -19 15
1 6 11 -5 27 -12 35 -15z"/>
<path d="M2721 3436 c-15 -18 -11 -21 57 -30 97 -14 205 -93 241 -177 24 -54
44 -60 49 -14 6 45 -26 112 -70 150 -76 64 -246 108 -277 71z"/>
<path d="M2332 3370 c-82 -38 -197 -151 -236 -232 -47 -96 -27 -99 37 -4 96
140 204 221 313 234 28 3 44 10 44 18 0 25 -89 16 -158 -16z"/>
<path d="M2485 3296 c-27 -7 -69 -22 -93 -35 -49 -25 -131 -103 -115 -108 6
-2 39 16 74 41 40 27 94 53 143 68 120 36 112 64 -9 34z"/>
<path d="M2389 3020 c-31 -4 -70 -16 -85 -28 -40 -28 -207 -202 -201 -208 8
-8 66 24 123 67 28 22 53 39 56 39 4 0 0 -21 -8 -47 -18 -59 -18 -144 0 -187
21 -50 73 -103 114 -117 62 -21 160 -16 212 10 101 52 144 119 144 226 0 39
-2 77 -4 85 -4 11 7 16 45 20 28 3 61 12 75 19 l24 14 -29 12 c-67 27 -224 76
-290 90 -75 16 -90 16 -176 5z m201 -200 c11 -11 20 -26 20 -33 0 -22 -31 -57
-51 -57 -23 0 -59 34 -59 55 0 8 9 24 20 35 11 11 27 20 35 20 8 0 24 -9 35
-20z"/>
<path d="M2390 2430 c-9 -6 -10 -10 -3 -10 6 0 15 5 18 10 8 12 4 12 -15 0z"/>
<path d="M1799 2063 c-13 -16 -12 -17 4 -4 9 7 17 15 17 17 0 8 -8 3 -21 -13z"/>
<path d="M2203 1510 c-44 -18 -56 -168 -17 -211 21 -23 67 -25 88 -3 23 22 29
56 24 126 -4 48 -9 65 -27 79 -25 21 -35 22 -68 9z"/>
<path d="M1323 1300 c-44 -18 -37 -100 8 -100 31 0 69 44 69 80 0 26 -3 30
-27 29 -16 0 -38 -4 -50 -9z"/>
<path d="M3510 1467 c-36 -18 -54 -63 -54 -138 -1 -70 10 -94 51 -110 61 -23
103 36 103 145 0 90 -41 133 -100 103z"/>
</g>
</svg>
